<mxfile host="Electron" modified="2024-07-14T19:04:09.436Z" agent="Mozilla/5.0 (Windows NT 10.0; Win64; x64) AppleWebKit/537.36 (KHTML, like Gecko) draw.io/24.6.4 Chrome/124.0.6367.207 Electron/30.0.6 Safari/537.36" etag="AeuZxhBeu0uOI_orH0ok" version="24.6.4" type="device">
  <diagram name="Page-1" id="9UztHrCMK1xJUVfJ0doU">
    <mxGraphModel dx="3585" dy="2110" grid="1" gridSize="10" guides="1" tooltips="1" connect="1" arrows="1" fold="1" page="1" pageScale="1" pageWidth="850" pageHeight="1100" math="0" shadow="0">
      <root>
        <mxCell id="0" />
        <mxCell id="1" parent="0" />
        <mxCell id="BrFZzuPIO8m9NAND1Jnc-22" style="edgeStyle=none;shape=connector;rounded=0;orthogonalLoop=1;jettySize=auto;html=1;strokeColor=default;align=center;verticalAlign=middle;fontFamily=Helvetica;fontSize=11;fontColor=default;labelBackgroundColor=default;endArrow=none;endFill=0;" edge="1" parent="1" source="BrFZzuPIO8m9NAND1Jnc-1" target="BrFZzuPIO8m9NAND1Jnc-16">
          <mxGeometry relative="1" as="geometry" />
        </mxCell>
        <mxCell id="BrFZzuPIO8m9NAND1Jnc-27" style="edgeStyle=none;shape=connector;rounded=0;orthogonalLoop=1;jettySize=auto;html=1;strokeColor=default;align=center;verticalAlign=middle;fontFamily=Helvetica;fontSize=11;fontColor=default;labelBackgroundColor=default;endArrow=none;endFill=0;" edge="1" parent="1" source="BrFZzuPIO8m9NAND1Jnc-1" target="BrFZzuPIO8m9NAND1Jnc-14">
          <mxGeometry relative="1" as="geometry" />
        </mxCell>
        <mxCell id="BrFZzuPIO8m9NAND1Jnc-1" value="&lt;span style=&quot;color: rgb(240, 240, 240); font-family: Helvetica; font-size: 11px; font-style: normal; font-variant-ligatures: normal; font-variant-caps: normal; font-weight: 400; letter-spacing: normal; orphans: 2; text-align: center; text-indent: 0px; text-transform: none; widows: 2; word-spacing: 0px; -webkit-text-stroke-width: 0px; white-space: normal; background-color: rgb(24, 20, 29); text-decoration-thickness: initial; text-decoration-style: initial; text-decoration-color: initial; display: inline !important; float: none;&quot;&gt;Match&lt;/span&gt;" style="rounded=1;whiteSpace=wrap;html=1;" vertex="1" parent="1">
          <mxGeometry x="170" y="310" width="120" height="60" as="geometry" />
        </mxCell>
        <mxCell id="BrFZzuPIO8m9NAND1Jnc-4" style="edgeStyle=orthogonalEdgeStyle;rounded=0;orthogonalLoop=1;jettySize=auto;html=1;exitX=1;exitY=0.5;exitDx=0;exitDy=0;endArrow=none;endFill=0;" edge="1" parent="1" source="BrFZzuPIO8m9NAND1Jnc-2" target="BrFZzuPIO8m9NAND1Jnc-3">
          <mxGeometry relative="1" as="geometry" />
        </mxCell>
        <mxCell id="BrFZzuPIO8m9NAND1Jnc-7" style="rounded=0;orthogonalLoop=1;jettySize=auto;html=1;endArrow=none;endFill=0;" edge="1" parent="1" source="BrFZzuPIO8m9NAND1Jnc-2" target="BrFZzuPIO8m9NAND1Jnc-1">
          <mxGeometry relative="1" as="geometry" />
        </mxCell>
        <mxCell id="BrFZzuPIO8m9NAND1Jnc-17" style="edgeStyle=none;shape=connector;rounded=0;orthogonalLoop=1;jettySize=auto;html=1;strokeColor=default;align=center;verticalAlign=middle;fontFamily=Helvetica;fontSize=11;fontColor=default;labelBackgroundColor=default;endArrow=classic;endFill=1;" edge="1" parent="1" source="BrFZzuPIO8m9NAND1Jnc-2" target="BrFZzuPIO8m9NAND1Jnc-16">
          <mxGeometry relative="1" as="geometry" />
        </mxCell>
        <mxCell id="BrFZzuPIO8m9NAND1Jnc-2" value="Team" style="rounded=1;whiteSpace=wrap;html=1;" vertex="1" parent="1">
          <mxGeometry x="369" y="220" width="120" height="60" as="geometry" />
        </mxCell>
        <mxCell id="BrFZzuPIO8m9NAND1Jnc-3" value="Players" style="rounded=1;whiteSpace=wrap;html=1;" vertex="1" parent="1">
          <mxGeometry x="570" y="220" width="120" height="60" as="geometry" />
        </mxCell>
        <mxCell id="BrFZzuPIO8m9NAND1Jnc-5" value="1..2" style="text;html=1;align=center;verticalAlign=middle;resizable=0;points=[];autosize=1;strokeColor=none;fillColor=none;" vertex="1" parent="1">
          <mxGeometry x="537" y="228" width="40" height="30" as="geometry" />
        </mxCell>
        <mxCell id="BrFZzuPIO8m9NAND1Jnc-6" value="1" style="text;html=1;align=center;verticalAlign=middle;resizable=0;points=[];autosize=1;strokeColor=none;fillColor=none;" vertex="1" parent="1">
          <mxGeometry x="479" y="228" width="30" height="30" as="geometry" />
        </mxCell>
        <mxCell id="BrFZzuPIO8m9NAND1Jnc-14" value="Game" style="rounded=1;whiteSpace=wrap;html=1;fontFamily=Helvetica;fontSize=11;fontColor=default;labelBackgroundColor=default;" vertex="1" parent="1">
          <mxGeometry x="170" y="130" width="120" height="60" as="geometry" />
        </mxCell>
        <mxCell id="BrFZzuPIO8m9NAND1Jnc-18" style="edgeStyle=none;shape=connector;rounded=0;orthogonalLoop=1;jettySize=auto;html=1;strokeColor=default;align=center;verticalAlign=middle;fontFamily=Helvetica;fontSize=11;fontColor=default;labelBackgroundColor=default;endArrow=none;endFill=0;" edge="1" parent="1" source="BrFZzuPIO8m9NAND1Jnc-16" target="BrFZzuPIO8m9NAND1Jnc-3">
          <mxGeometry relative="1" as="geometry" />
        </mxCell>
        <mxCell id="BrFZzuPIO8m9NAND1Jnc-16" value="Buy_Team" style="rounded=1;whiteSpace=wrap;html=1;fontFamily=Helvetica;fontSize=11;fontColor=default;labelBackgroundColor=default;perimeterSpacing=0;glass=0;shadow=0;sketch=1;curveFitting=1;jiggle=2;" vertex="1" parent="1">
          <mxGeometry x="369" y="350" width="120" height="60" as="geometry" />
        </mxCell>
        <mxCell id="BrFZzuPIO8m9NAND1Jnc-19" value="1" style="text;html=1;align=center;verticalAlign=middle;resizable=0;points=[];autosize=1;strokeColor=none;fillColor=none;" vertex="1" parent="1">
          <mxGeometry x="458" y="325" width="30" height="30" as="geometry" />
        </mxCell>
        <mxCell id="BrFZzuPIO8m9NAND1Jnc-20" value="0..*" style="text;html=1;align=center;verticalAlign=middle;resizable=0;points=[];autosize=1;strokeColor=none;fillColor=none;" vertex="1" parent="1">
          <mxGeometry x="540" y="270" width="40" height="30" as="geometry" />
        </mxCell>
        <mxCell id="BrFZzuPIO8m9NAND1Jnc-23" value="1" style="text;html=1;align=center;verticalAlign=middle;resizable=0;points=[];autosize=1;strokeColor=none;fillColor=none;fontFamily=Helvetica;fontSize=11;fontColor=default;labelBackgroundColor=default;" vertex="1" parent="1">
          <mxGeometry x="282" y="328" width="30" height="30" as="geometry" />
        </mxCell>
        <mxCell id="BrFZzuPIO8m9NAND1Jnc-24" value="1" style="text;html=1;align=center;verticalAlign=middle;resizable=0;points=[];autosize=1;strokeColor=none;fillColor=none;fontFamily=Helvetica;fontSize=11;fontColor=default;labelBackgroundColor=default;" vertex="1" parent="1">
          <mxGeometry x="277" y="284" width="30" height="30" as="geometry" />
        </mxCell>
        <mxCell id="BrFZzuPIO8m9NAND1Jnc-25" value="2" style="text;html=1;align=center;verticalAlign=middle;resizable=0;points=[];autosize=1;strokeColor=none;fillColor=none;fontFamily=Helvetica;fontSize=11;fontColor=default;labelBackgroundColor=default;" vertex="1" parent="1">
          <mxGeometry x="341" y="257" width="30" height="30" as="geometry" />
        </mxCell>
        <mxCell id="BrFZzuPIO8m9NAND1Jnc-26" value="1" style="text;html=1;align=center;verticalAlign=middle;resizable=0;points=[];autosize=1;strokeColor=none;fillColor=none;fontFamily=Helvetica;fontSize=11;fontColor=default;labelBackgroundColor=default;" vertex="1" parent="1">
          <mxGeometry x="344" y="341" width="30" height="30" as="geometry" />
        </mxCell>
        <mxCell id="BrFZzuPIO8m9NAND1Jnc-28" value="5" style="text;html=1;align=center;verticalAlign=middle;resizable=0;points=[];autosize=1;strokeColor=none;fillColor=none;fontFamily=Helvetica;fontSize=11;fontColor=default;labelBackgroundColor=default;" vertex="1" parent="1">
          <mxGeometry x="206" y="286" width="30" height="30" as="geometry" />
        </mxCell>
        <mxCell id="BrFZzuPIO8m9NAND1Jnc-29" value="1" style="text;html=1;align=center;verticalAlign=middle;resizable=0;points=[];autosize=1;strokeColor=none;fillColor=none;fontFamily=Helvetica;fontSize=11;fontColor=default;labelBackgroundColor=default;" vertex="1" parent="1">
          <mxGeometry x="221" y="184" width="30" height="30" as="geometry" />
        </mxCell>
        <mxCell id="BrFZzuPIO8m9NAND1Jnc-30" value="&lt;h1 style=&quot;margin-top: 0px;&quot;&gt;Entity Relationship Diagram&lt;/h1&gt;&lt;p&gt;Shows data structures involved in match rules / shuffling. Dictates coupling&lt;/p&gt;" style="text;html=1;whiteSpace=wrap;overflow=hidden;rounded=0;fontFamily=Helvetica;fontSize=11;fontColor=default;labelBackgroundColor=default;" vertex="1" parent="1">
          <mxGeometry x="320" y="110" width="380" height="80" as="geometry" />
        </mxCell>
      </root>
    </mxGraphModel>
  </diagram>
</mxfile>
